<!-- Uploaded to: SVG Repo, www.svgrepo.com, Generator: SVG Repo Mixer Tools -->
<!DOCTYPE svg PUBLIC "-//W3C//DTD SVG 1.1//EN" "http://www.w3.org/Graphics/SVG/1.1/DTD/svg11.dtd">
<svg fill="#000000" height="800px" width="800px" version="1.1" id="Capa_1" xmlns="http://www.w3.org/2000/svg" xmlns:xlink="http://www.w3.org/1999/xlink" 
	 viewBox="0 0 296.097 296.097" xml:space="preserve">
<g>
	<path d="M287.994,249.143l-26.857-26.855c15.776-23.345,24.261-50.84,24.261-79.643c0-38.102-14.837-73.924-41.779-100.866
		C216.677,14.838,180.856,0,142.753,0C104.652,0,68.829,14.838,41.887,41.779C14.946,68.723,0.108,104.544,0.108,142.645
		c0,38.102,14.839,73.923,41.781,100.864c26.941,26.943,62.763,41.781,100.865,41.781c28.702,0,56.108-8.424,79.401-24.096
		l26.895,26.895c5.166,5.163,12.031,8.007,19.333,8.007c7.303,0,14.168-2.844,19.333-8.008l0.278-0.277
		C298.654,277.151,298.654,259.806,287.994,249.143z M276.681,276.497l-0.277,0.277c-2.143,2.142-4.991,3.322-8.021,3.322
		s-5.878-1.181-8.02-3.322l-25.342-25.341c2.953-2.514,5.825-5.15,8.598-7.923c2.704-2.704,5.279-5.501,7.736-8.377l25.324,25.323
		C281.102,264.88,281.102,272.075,276.681,276.497z M232.305,53.094c23.921,23.92,37.094,55.724,37.094,89.552
		s-13.173,65.632-37.094,89.551c-23.92,23.921-55.723,37.095-89.551,37.095c-33.828,0-65.632-13.174-89.551-37.095
		c-23.921-23.92-37.096-55.724-37.096-89.552c0-33.827,13.173-65.631,37.094-89.551C77.121,29.173,108.925,16,142.753,16
		C176.581,16,208.385,29.173,232.305,53.094z"/>
	<path d="M65.084,220.316c20.746,20.745,48.33,32.17,77.67,32.17c29.34,0,56.923-11.425,77.669-32.169
		c42.826-42.828,42.827-112.514,0.001-155.342c-20.746-20.745-48.33-32.17-77.67-32.17c-29.341,0-56.925,11.425-77.672,32.171
		C22.257,107.804,22.258,177.489,65.084,220.316z M209.111,76.289c36.588,36.59,36.587,96.125-0.001,132.714
		c-17.725,17.723-41.289,27.483-66.355,27.483s-48.632-9.761-66.355-27.484c-36.589-36.588-36.59-96.123-0.003-132.712
		c17.726-17.724,41.292-27.484,66.358-27.484S191.387,58.566,209.111,76.289z"/>
	<path d="M139.135,196.701c1.137,0.577,2.378,0.865,3.618,0.865c1.24,0,2.481-0.288,3.618-0.865
		c44.314-22.473,58.768-56.668,53.445-78.931c-3.251-13.599-13.432-22.046-26.568-22.046c-14.954,0-24.595,6.265-30.495,13.9
		c-5.9-7.636-15.541-13.9-30.495-13.9c-13.137,0-23.317,8.447-26.568,22.046c-2.874,12.023,0.209,26.63,8.459,40.073
		C103.501,173.082,119.058,186.52,139.135,196.701z M101.251,121.491c0.872-3.648,3.462-9.767,11.007-9.767
		c8.677,0,14.813,2.974,18.763,9.091c3.202,4.962,3.76,10.225,3.761,10.225c0.349,4.144,3.813,7.329,7.972,7.329
		c4.158,0,7.623-3.186,7.972-7.329c0.066-0.789,1.863-19.315,22.523-19.315c7.545,0,10.135,6.119,11.007,9.767
		c3.159,13.213-5.483,39.407-41.502,59.038C106.735,160.898,98.092,134.704,101.251,121.491z"/>
</g>
</svg>